{"title":"The.Wolverine.2013.HardSubbed.RHeat.mp4","uid":9268319,"size":1528389386,"categoryP":"video","categoryS":"movies","magnet":"?xt=urn:btih:7b3fd239aa1451fb09a4c656b9a7db52f1b64b74&amp;dn=The.Wolverine.2013.HardSubbed.RHeat.mp4&amp;tr=udp%3A%2F%2Ftracker.openbittorrent.com%3A80&amp;tr=udp%3A%2F%2Fopen.demonii.com%3A1337&amp;tr=udp%3A%2F%2Ftracker.coppersurfer.tk%3A6969&amp;tr=udp%3A%2F%2Fexodus.desync.com%3A6969","seeders":1,"leechers":0,"uploader":"RicoHeat","files":1,"time":1385733805,"description":" &lt;a href=&quot;http://www.imdb.com/title/tt1430132/&quot; rel=&quot;nofollow&quot; target=&quot;_NEW&quot;&gt;http://www.imdb.com/title/tt1430132/&lt;/a&gt;\n\nStoryline: In modern day Japan, Wolverine is out of his depth in an unknown world as he faces his ultimate nemesis in a life-or-death battle that will leave him forever changed. Vulnerable for the first time and pushed to his physical and emotional limits, he confronts not only lethal samurai steel but also his inner struggle against his own immortality, emerging more powerful than we have ever seen him before.\n\nGenres: Action | Adventure | Fantasy | Sci-Fi\n\nDirector: James Mangold\nWriters: Mark Bomback (screenplay), Scott Frank (screenplay)\nStars: Hugh Jackman, Will Yun Lee, Tao Okamoto\n\nCountry: Australia | USA\nLanguage: English | Japanese\nRelease Date: 26 July 2013 (USA)\n\nNote: I used online source for subtitles for both English and Japanese and I cleaned them up as much as I could (many typos or misspellings) and I integrated them (hard subs) into the movie to make it one file.\n\nEnjoy!\n\n\nFormat                                   : MPEG-4\nFormat profile                           : Base Media\nCodec ID                                 : isom\nFile size                                : 1.42 GiB\nDuration                                 : 2h 18mn\nOverall bit rate                         : 1 474 Kbps\nWriting application                      : Lavf54.63.104\n\nVideo\nID                                       : 1\nFormat                                   : MPEG-4 Visual\nFormat profile                           : Simple@L1\nFormat settings, BVOP                    : No\nFormat settings, QPel                    : No\nFormat settings, GMC                     : No warppoints\nFormat settings, Matrix                  : Default (H.263)\nCodec ID                                 : 20\nDuration                                 : 2h 18mn\nDuration_FirstFrame                      : 42ms\nBit rate mode                            : Constant\nBit rate                                 : 1 150 Kbps\nWidth                                    : 720 pixels\nHeight                                   : 304 pixels\nDisplay aspect ratio                     : 2.35:1\nFrame rate mode                          : Constant\nFrame rate                               : 23.976 fps\nColor space                              : YUV\nChroma subsampling                       : 4:2:0\nBit depth                                : 8 bits\nScan type                                : Progressive\nCompression mode                         : Lossy\nBits/(Pixel*Frame)                       : 0.219\nStream size                              : 1.11 GiB (78%)\nWriting library                          : Lavc54.92.100\n\nAudio\nID                                       : 2\nFormat                                   : AAC\nFormat/Info                              : Advanced Audio Codec\nFormat profile                           : LC\nCodec ID                                 : 40\nDuration                                 : 2h 18mn\nDuration_FirstFrame                      : 64ms\nBit rate mode                            : Constant\nBit rate                                 : 320 Kbps\nChannel count                            : 2 channels\nOriginal Channel count                   : 6 channels\nChannel positions                        : Front: L C R, Side: L R, LFE\nSampling rate                            : 48.0 KHz\nCompression mode                         : Lossy\nStream size                              : 316 MiB (22%)\n\n \n\n","torrent":{"xt":"urn:btih:7b3fd239aa1451fb09a4c656b9a7db52f1b64b74","amp;dn":"The.Wolverine.2013.HardSubbed.RHeat.mp4","amp;tr":["udp%3A%2F%2Ftracker.openbittorrent.com%3A80","udp%3A%2F%2Fopen.demonii.com%3A1337","udp%3A%2F%2Ftracker.coppersurfer.tk%3A6969","udp%3A%2F%2Fexodus.desync.com%3A6969"],"infoHash":"7b3fd239aa1451fb09a4c656b9a7db52f1b64b74","infoHashBuffer":{"type":"Buffer","data":[123,63,210,57,170,20,81,251,9,164,198,86,185,167,219,82,241,182,75,116]},"announce":[],"urlList":[]}}